<svg width="30" height="35" viewBox="0 0 30 39" fill="none" xmlns="http://www.w3.org/2000/svg">
<g clip-path="url(#clip0_344_421)">
<path fill-rule="evenodd" clip-rule="evenodd" d="M14.5455 0.409058C22.7273 0.409058 30 6.77269 30 14.9545C30 23.1363 19.0909 38.5909 14.5455 38.5909C10.9091 38.5909 0 23.1363 0 14.9545C0 6.77269 6.36364 0.409058 14.5455 0.409058V0.409058Z" fill="#EF7F1A"/>
<path d="M14.5455 27.6818C21.0725 27.6818 26.3636 22.3906 26.3636 15.8636C26.3636 9.33659 21.0725 4.04541 14.5455 4.04541C8.01846 4.04541 2.72728 9.33659 2.72728 15.8636C2.72728 22.3906 8.01846 27.6818 14.5455 27.6818Z" fill="#FEFEFE"/>
<path fill-rule="evenodd" clip-rule="evenodd" d="M21.8182 12.2273H16.3636L12.7273 9.5L10 11.3182V10.4091H8.18182V13.1364L5.45454 14.9545H8.18182V21.3182H21.8182V14.9545H24.5455L21.8182 12.2273ZM16.3636 14.9545H20.9091V20.4091H16.3636V14.9545ZM12.7273 11.3182L16.3636 14.0455H9.09091L12.7273 11.3182ZM10 14.9545H15.4545V20.4091H10V14.9545Z" fill="#EF7F1A"/>
<path fill-rule="evenodd" clip-rule="evenodd" d="M21.8182 12.2273H16.3636L12.7273 9.5L10 11.3182V10.4091H8.18182V13.1364L5.45454 14.9545H21.8182H24.5455L21.8182 12.2273ZM12.7273 11.3182L16.3636 14.0455H9.09091L12.7273 11.3182Z" fill="#5B5B5B"/>
</g>
<defs>
<clipPath id="clip0_344_421">
<rect width="30" height="39" fill="white"/>
</clipPath>
</defs>
</svg>
