<svg width="25" height="27" viewBox="0 0 25 27" fill="none" xmlns="http://www.w3.org/2000/svg">
<path fill-rule="evenodd" clip-rule="evenodd" d="M4.6875 0C4.6875 0 3.90625 0 3.90625 0.78125C3.125 0.78125 3.125 1.5625 2.34375 1.5625C2.34375 2.34375 2.34375 2.34375 1.5625 2.34375V3.90625C0.78125 3.90625 0.78125 3.90625 0.78125 3.90625C0.78125 3.90625 0.78125 3.90625 0.78125 4.6875V5.46875C0 5.46875 0 5.46875 0 6.25V7.03125C0 7.8125 0 7.8125 0 7.8125C0 7.8125 0 7.8125 0 8.59375V9.375C0 10.1562 0 10.1562 0 10.1562L0.78125 10.9375C0.78125 11.7188 0.78125 11.7188 0.78125 11.7188V12.5L1.5625 13.2812C1.5625 14.0625 1.5625 14.0625 1.5625 14.0625C1.5625 14.0625 1.5625 14.0625 1.5625 14.8438H2.34375V15.625C2.34375 15.625 2.34375 15.625 3.125 15.625V16.4062L3.90625 17.1875C3.90625 17.1875 3.90625 17.1875 3.90625 17.9688C3.90625 17.9688 4.6875 17.9688 3.90625 17.9688C4.6875 17.9688 4.6875 18.75 5.46875 18.75L6.25 20.3125L7.03125 21.0938C7.8125 21.875 7.8125 21.0938 7.8125 21.875C7.8125 21.875 8.59375 21.875 8.59375 22.6562L10.1562 23.4375C10.1562 23.4375 10.1562 23.4375 10.1562 24.2188C10.1562 24.2188 10.1562 24.2188 10.9375 24.2188C11.7188 24.2188 10.9375 24.2188 11.7188 24.2188L12.5 25C13.2812 25 13.2812 25.7813 13.2812 25.7813H14.0625C14.8438 25.7813 14.8438 25.7813 14.8438 25.7813C14.8438 25.7813 14.8438 25.7813 15.625 25.7813L16.4062 26.5625H17.9688L19.5312 25.7813H20.3125C20.3125 25.7813 20.3125 25.7812 21.0938 25C21.875 25 21.875 25 21.875 25L22.6562 24.2188C22.6562 23.4375 22.6562 23.4375 23.4375 23.4375L24.2188 22.6562C24.2188 22.6562 24.2188 22.6562 24.2188 21.875V21.0938C24.2188 20.3125 24.2188 20.3125 24.2188 20.3125C23.4375 20.3125 23.4375 20.3125 23.4375 20.3125C23.4375 19.5312 23.4375 20.3125 23.4375 19.5312C22.6562 19.5312 22.6562 19.5312 22.6562 19.5312C22.6562 18.75 22.6562 18.75 22.6562 18.75C22.6562 18.75 22.6562 18.75 21.875 18.75L20.3125 17.1875H19.5312L18.75 16.4062L17.9688 17.1875H17.1875C17.1875 17.1875 17.1875 17.1875 16.4062 17.9688H15.625C15.625 18.75 14.8438 18.75 14.8438 19.5312H14.0625H13.2812C13.2812 19.5312 12.5 19.5312 12.5 18.75C12.5 18.75 12.5 18.75 11.7188 18.75L10.1562 17.1875C10.1562 16.4062 8.59375 15.625 8.59375 14.8438C7.8125 14.8438 8.59375 14.8438 7.8125 14.8438C7.8125 14.8438 7.8125 14.8438 7.8125 14.0625L7.03125 13.2812V12.5C6.25 11.7188 6.25 10.9375 6.25 10.9375C6.25 10.1562 7.03125 10.1562 7.03125 9.375C7.03125 9.375 7.03125 9.375 7.8125 9.375L8.59375 8.59375C8.59375 7.8125 8.59375 7.8125 8.59375 7.8125C9.375 7.03125 10.1562 7.03125 9.375 6.25V5.46875V4.6875V3.90625L8.59375 3.125L7.8125 2.34375C7.8125 1.5625 7.8125 1.5625 7.8125 1.5625H7.03125V0.78125C7.03125 0.78125 6.25 0.78125 6.25 0H5.46875H4.6875V0ZM12.5 9.375H13.2812C13.2812 9.375 14.0625 10.1562 14.8438 10.1562H15.625C15.625 10.9375 16.4062 10.9375 16.4062 10.9375V11.7188C16.4062 11.7188 17.1875 11.7188 17.1875 12.5V13.2812C17.1875 13.2812 17.1875 13.2813 17.1875 14.0625L17.9688 14.8438H20.3125V14.0625L19.5312 13.2812V12.5V11.7188C19.5312 11.7188 19.5312 11.7188 19.5312 10.9375H18.75V10.1562H17.9688C17.9688 9.375 17.9688 10.1562 17.9688 9.375C17.1875 9.375 17.1875 9.375 17.1875 8.59375C16.4062 8.59375 16.4062 8.59375 16.4062 8.59375C16.4062 7.8125 14.8438 7.8125 14.8438 7.8125H14.0625L13.2812 7.03125H12.5V9.375ZM12.5 4.6875H13.2812H14.0625C14.0625 4.6875 14.0625 4.6875 14.0625 5.46875H14.8438C15.625 5.46875 15.625 5.46875 16.4062 5.46875C16.4062 5.46875 17.1875 6.25 17.9688 6.25L18.75 7.03125C19.5312 7.03125 18.75 7.03125 19.5312 7.03125C19.5312 7.8125 19.5312 7.8125 19.5312 7.8125C20.3125 7.8125 20.3125 7.8125 20.3125 8.59375L21.0938 9.375L21.875 10.9375C21.875 11.7188 21.875 11.7188 21.875 12.5L22.6562 13.2812V14.8438H23.4375C24.2188 14.0625 24.2188 14.8438 25 14.8438V14.0625V13.2812L24.2188 12.5V11.7188V10.9375V10.1562L23.4375 9.375C23.4375 9.375 23.4375 9.375 23.4375 8.59375C22.6562 8.59375 22.6562 7.8125 22.6562 7.8125C22.6562 7.8125 22.6562 7.8125 22.6562 7.03125C22.6562 7.03125 22.6562 7.03125 21.875 7.03125C21.875 6.25 21.875 6.25 21.875 6.25C21.875 6.25 21.875 6.25 21.0938 6.25C21.0938 6.25 21.0938 6.25 21.0938 5.46875C20.3125 5.46875 20.3125 5.46875 20.3125 5.46875C20.3125 4.6875 20.3125 4.6875 20.3125 4.6875H19.5312C19.5312 4.6875 18.75 4.6875 18.75 3.90625H17.9688C17.9688 3.90625 17.9688 3.90625 17.1875 3.90625C17.1875 3.125 17.1875 3.125 17.1875 3.125H16.4062H15.625H14.8438V2.34375H14.0625C13.2813 2.34375 13.2812 2.34375 13.2812 2.34375H12.5V4.6875Z" fill="#EF7F1A"/>
</svg>
