<svg width="83" height="72" viewBox="0 0 83 72" fill="none" xmlns="http://www.w3.org/2000/svg">
<path fill-rule="evenodd" clip-rule="evenodd" d="M1.13477 11.6774H61.0831V18.7058C60.6697 18.7058 60.4629 18.4991 60.0495 18.4991C57.1554 18.4991 54.8815 20.9797 54.8815 23.8738V48.68H1.13477V11.6774V11.6774Z" stroke="#8C8C94" stroke-width="2.26957" stroke-miterlimit="22.9256" stroke-linecap="round" stroke-linejoin="round"/>
<path fill-rule="evenodd" clip-rule="evenodd" d="M1.13477 48.6799H54.8815V53.2277C53.0211 54.6748 51.7808 56.9487 51.7808 59.4293C51.7808 63.7704 55.5017 67.4913 59.8428 67.4913C60.2562 67.4913 60.6697 67.2846 61.0831 67.2846V70.5921H1.13477V48.6799V48.6799Z" stroke="#8C8C94" stroke-width="2.26957" stroke-miterlimit="22.9256" stroke-linecap="round" stroke-linejoin="round"/>
<path d="M15.605 13.7445H4.02881V46.6127H15.605V13.7445Z" stroke="#8C8C94" stroke-width="1.0087" stroke-miterlimit="22.9256" stroke-linecap="round" stroke-linejoin="round"/>
<path d="M30.2821 13.7445H17.4656V46.6127H30.2821V13.7445Z" stroke="#8C8C94" stroke-width="1.0087" stroke-miterlimit="22.9256" stroke-linecap="round" stroke-linejoin="round"/>
<path d="M44.7523 13.7445H31.9358V46.6127H44.7523V13.7445Z" stroke="#8C8C94" stroke-width="1.0087" stroke-miterlimit="22.9256" stroke-linecap="round" stroke-linejoin="round"/>
<path fill-rule="evenodd" clip-rule="evenodd" d="M46.6128 13.7445H59.4293V18.7057C56.742 18.9125 54.8815 21.1864 54.8815 23.8737V46.6127H46.6128V13.7445V13.7445Z" stroke="#8C8C94" stroke-width="1.0087" stroke-miterlimit="22.9256" stroke-linecap="round" stroke-linejoin="round"/>
<path d="M8.36987 53.8479V65.2174" stroke="#8C8C94" stroke-width="1.0087" stroke-miterlimit="22.9256" stroke-linecap="round" stroke-linejoin="round"/>
<path d="M15.1917 53.8479V65.2174" stroke="#8C8C94" stroke-width="1.0087" stroke-miterlimit="22.9256" stroke-linecap="round" stroke-linejoin="round"/>
<path d="M21.5999 53.8479V65.2174" stroke="#8C8C94" stroke-width="1.0087" stroke-miterlimit="22.9256" stroke-linecap="round" stroke-linejoin="round"/>
<path d="M28.4216 53.8479V65.2174" stroke="#8C8C94" stroke-width="1.0087" stroke-miterlimit="22.9256" stroke-linecap="round" stroke-linejoin="round"/>
<path d="M34.8298 53.8479V65.2174" stroke="#8C8C94" stroke-width="1.0087" stroke-miterlimit="22.9256" stroke-linecap="round" stroke-linejoin="round"/>
<path d="M41.6515 53.8479V65.2174" stroke="#8C8C94" stroke-width="1.0087" stroke-miterlimit="22.9256" stroke-linecap="round" stroke-linejoin="round"/>
<path d="M48.0598 53.8479V65.2174" stroke="#8C8C94" stroke-width="1.0087" stroke-miterlimit="22.9256" stroke-linecap="round" stroke-linejoin="round"/>
<path fill-rule="evenodd" clip-rule="evenodd" d="M65.2175 53.4345C66.8712 54.8816 67.9048 56.9488 67.9048 59.4294C67.9048 63.7705 64.3906 67.4914 59.8428 67.4914C55.5017 67.4914 51.7808 63.7705 51.7808 59.4294C51.7808 56.9488 53.0211 54.6749 54.8815 53.2278V23.8738C54.8815 20.9798 57.1554 18.4991 60.0495 18.4991C62.9436 18.4991 65.2175 20.9798 65.2175 23.8738V53.4345V53.4345Z" stroke="#8C8C94" stroke-width="2.26957" stroke-miterlimit="22.9256" stroke-linecap="round" stroke-linejoin="round"/>
<path fill-rule="evenodd" clip-rule="evenodd" d="M60.0494 23.667C61.083 23.667 61.9099 24.7006 61.9099 25.7342V56.3285C62.9435 56.9486 63.7703 58.189 63.7703 59.636C63.7703 61.7032 62.1166 63.5636 59.8427 63.5636C57.7755 63.5636 55.915 61.7032 55.915 59.636C55.915 57.9822 56.7419 56.7419 58.1889 56.1218V25.7342C58.1889 24.7006 59.0158 23.667 60.0494 23.667V23.667Z" stroke="#8C8C94" stroke-width="2.26957" stroke-miterlimit="22.9256" stroke-linecap="round" stroke-linejoin="round"/>
<path fill-rule="evenodd" clip-rule="evenodd" d="M61.9099 26.9746V56.3286C62.9435 56.9488 63.7703 58.1891 63.7703 59.6361C63.7703 61.7033 62.1166 63.5638 59.8427 63.5638C57.7755 63.5638 55.915 61.7033 55.915 59.6361C55.915 57.9824 56.7419 56.7421 58.1889 56.1219V26.9746H61.9099Z" fill="#9494A8" stroke="#8C8C94" stroke-width="2.26957" stroke-miterlimit="22.9256" stroke-linecap="round" stroke-linejoin="round"/>
<path fill-rule="evenodd" clip-rule="evenodd" d="M74.7266 37.1038V41.0314V37.1038ZM74.7266 48.0598V52.1942V48.0598Z" stroke="#8C8C94" stroke-width="2.26957" stroke-miterlimit="22.9256" stroke-linecap="round" stroke-linejoin="round"/>
<path fill-rule="evenodd" clip-rule="evenodd" d="M81.1347 48.4733L77.6205 46.4061L81.1347 48.4733ZM71.6257 42.8919L68.1115 40.8247L71.6257 42.8919Z" stroke="#8C8C94" stroke-width="2.26957" stroke-miterlimit="22.9256" stroke-linecap="round" stroke-linejoin="round"/>
<path d="M77.6205 42.8919L81.1347 40.8247M68.1115 48.4733L71.6257 46.4061L68.1115 48.4733Z" stroke="#8C8C94" stroke-width="2.26957" stroke-miterlimit="22.9256" stroke-linecap="round" stroke-linejoin="round"/>
<path d="M74.7265 48.0598C76.6673 48.0598 78.2407 46.4864 78.2407 44.5456C78.2407 42.6047 76.6673 41.0314 74.7265 41.0314C72.7856 41.0314 71.2123 42.6047 71.2123 44.5456C71.2123 46.4864 72.7856 48.0598 74.7265 48.0598Z" stroke="#8C8C94" stroke-width="2.26957" stroke-miterlimit="22.9256" stroke-linecap="round" stroke-linejoin="round"/>
<path fill-rule="evenodd" clip-rule="evenodd" d="M6.50951 1.13477H55.7085C56.5354 3.20195 61.0832 11.4707 61.0832 11.6774L1.34155 11.4707L6.50951 1.13477V1.13477Z" stroke="#8C8C94" stroke-width="2.26957" stroke-miterlimit="22.9256" stroke-linecap="round" stroke-linejoin="round"/>
<path d="M11.0573 4.02881L8.57666 8.36989" stroke="#8C8C94" stroke-width="1.0087" stroke-miterlimit="22.9256" stroke-linecap="round" stroke-linejoin="round"/>
<path d="M17.2588 4.2356L16.2252 8.16324" stroke="#8C8C94" stroke-width="1.0087" stroke-miterlimit="22.9256" stroke-linecap="round" stroke-linejoin="round"/>
<path d="M24.0804 4.2356L23.667 8.16324" stroke="#8C8C94" stroke-width="1.0087" stroke-miterlimit="22.9256" stroke-linecap="round" stroke-linejoin="round"/>
<path d="M31.1089 4.02881V8.36989" stroke="#8C8C94" stroke-width="1.0087" stroke-miterlimit="22.9256" stroke-linecap="round" stroke-linejoin="round"/>
<path d="M44.959 4.23553L45.9926 8.16318M51.1606 4.02881L53.6412 8.36989L51.1606 4.02881ZM31.1089 4.02881V8.36989V4.02881ZM38.1373 4.23553L38.5507 8.16318L38.1373 4.23553Z" stroke="#8C8C94" stroke-width="1.0087" stroke-miterlimit="22.9256" stroke-linecap="round" stroke-linejoin="round"/>
</svg>
