<svg width="68" height="73" viewBox="0 0 68 73" fill="none" xmlns="http://www.w3.org/2000/svg">
<path fill-rule="evenodd" clip-rule="evenodd" d="M1.48804 11.9136H66.0893V23.27V71.488H43.758V71.3019H1.48804V11.9136Z" stroke="#9494A8" stroke-width="2.97619" stroke-miterlimit="22.9256" stroke-linecap="round" stroke-linejoin="round"/>
<path d="M17.2395 14.1476H4.47876V45.238H17.2395V14.1476Z" stroke="#9494A8" stroke-width="1.4881" stroke-miterlimit="22.9256" stroke-linecap="round" stroke-linejoin="round"/>
<path d="M32.5923 14.1476H18.8346V45.238H32.5923V14.1476Z" stroke="#9494A8" stroke-width="1.4881" stroke-miterlimit="22.9256" stroke-linecap="round" stroke-linejoin="round"/>
<path d="M48.5432 14.1476H34.7855V45.238H48.5432V14.1476Z" stroke="#9494A8" stroke-width="1.4881" stroke-miterlimit="22.9256" stroke-linecap="round" stroke-linejoin="round"/>
<path d="M63.2978 14.1476H50.5371V45.238H63.2978V14.1476Z" stroke="#9494A8" stroke-width="1.4881" stroke-miterlimit="22.9256" stroke-linecap="round" stroke-linejoin="round"/>
<path d="M17.2395 46.9136H4.47876V68.5093H17.2395V46.9136Z" stroke="#9494A8" stroke-width="1.4881" stroke-miterlimit="22.9256" stroke-linecap="round" stroke-linejoin="round"/>
<path d="M32.5923 46.9136H18.8346V68.5093H32.5923V46.9136Z" stroke="#9494A8" stroke-width="1.4881" stroke-miterlimit="22.9256" stroke-linecap="round" stroke-linejoin="round"/>
<path d="M48.5432 46.9136H34.7855V68.5093H48.5432V46.9136Z" stroke="#9494A8" stroke-width="1.4881" stroke-miterlimit="22.9256" stroke-linecap="round" stroke-linejoin="round"/>
<path d="M63.2978 46.9136H50.5371V68.5093H63.2978V46.9136Z" stroke="#9494A8" stroke-width="1.4881" stroke-miterlimit="22.9256" stroke-linecap="round" stroke-linejoin="round"/>
<path fill-rule="evenodd" clip-rule="evenodd" d="M7.669 1.48804H60.7058C61.7027 3.34974 66.488 11.7274 66.488 11.9136L2.08618 11.7274L7.669 1.48804V1.48804Z" stroke="#9494A8" stroke-width="2.97619" stroke-miterlimit="22.9256" stroke-linecap="round" stroke-linejoin="round"/>
<path d="M12.4543 4.28052L9.8623 8.56243" stroke="#9494A8" stroke-width="1.4881" stroke-miterlimit="22.9256" stroke-linecap="round" stroke-linejoin="round"/>
<path d="M19.2335 4.46692L18.2366 8.56266" stroke="#9494A8" stroke-width="1.4881" stroke-miterlimit="22.9256" stroke-linecap="round" stroke-linejoin="round"/>
<path d="M26.6107 4.46692L26.0126 8.56266" stroke="#9494A8" stroke-width="1.4881" stroke-miterlimit="22.9256" stroke-linecap="round" stroke-linejoin="round"/>
<path d="M34.1874 4.28052V8.56243" stroke="#9494A8" stroke-width="1.4881" stroke-miterlimit="22.9256" stroke-linecap="round" stroke-linejoin="round"/>
<path d="M49.1414 4.46669L50.1383 8.56243M55.9205 4.28052L58.5125 8.56243L55.9205 4.28052ZM34.1874 4.28052V8.56243V4.28052ZM41.7641 4.46669L42.1628 8.56243L41.7641 4.46669Z" stroke="#9494A8" stroke-width="1.4881" stroke-miterlimit="22.9256" stroke-linecap="round" stroke-linejoin="round"/>
</svg>
