<svg width="83" height="72" viewBox="0 0 83 72" fill="none" xmlns="http://www.w3.org/2000/svg">
<path fill-rule="evenodd" clip-rule="evenodd" d="M1.10828 11.5629H61.1083V18.6083C60.881 18.6083 60.4265 18.6083 59.9719 18.6083C57.2446 18.6083 54.7446 20.881 54.7446 23.8356V48.8356H1.10828V11.5629V11.5629Z" stroke="#9494A8" stroke-width="2.21656" stroke-miterlimit="22.9256" stroke-linecap="round" stroke-linejoin="round"/>
<path fill-rule="evenodd" clip-rule="evenodd" d="M1.10828 48.8357H54.7446V53.1539C52.9265 54.5175 51.7901 56.7902 51.7901 59.2902C51.7901 63.8357 55.4265 67.4721 59.9719 67.4721C60.4265 67.4721 60.6537 67.4721 61.1083 67.2448V70.6539H1.10828V48.8357V48.8357Z" stroke="#9494A8" stroke-width="2.21656" stroke-miterlimit="22.9256" stroke-linecap="round" stroke-linejoin="round"/>
<path d="M15.6538 13.8357H3.83557V46.7902H15.6538V13.8357Z" stroke="#9494A8" stroke-width="1.10828" stroke-miterlimit="22.9256" stroke-linecap="round" stroke-linejoin="round"/>
<path d="M30.1993 13.8357H17.2448V46.7902H30.1993V13.8357Z" stroke="#9494A8" stroke-width="1.10828" stroke-miterlimit="22.9256" stroke-linecap="round" stroke-linejoin="round"/>
<path d="M44.9719 13.8357H32.0173V46.7902H44.9719V13.8357Z" stroke="#9494A8" stroke-width="1.10828" stroke-miterlimit="22.9256" stroke-linecap="round" stroke-linejoin="round"/>
<path fill-rule="evenodd" clip-rule="evenodd" d="M46.5627 13.8357H59.29V18.6084C56.79 18.8357 54.7446 21.1084 54.7446 23.8357V46.7902H46.5627V13.8357V13.8357Z" stroke="#9494A8" stroke-width="1.10828" stroke-miterlimit="22.9256" stroke-linecap="round" stroke-linejoin="round"/>
<path d="M8.15356 53.8357V65.1993" stroke="#9494A8" stroke-width="1.10828" stroke-miterlimit="22.9256" stroke-linecap="round" stroke-linejoin="round"/>
<path d="M14.9718 53.8357V65.1993" stroke="#9494A8" stroke-width="1.10828" stroke-miterlimit="22.9256" stroke-linecap="round" stroke-linejoin="round"/>
<path d="M21.5627 53.8357V65.1993" stroke="#9494A8" stroke-width="1.10828" stroke-miterlimit="22.9256" stroke-linecap="round" stroke-linejoin="round"/>
<path d="M28.381 53.8357V65.1993" stroke="#9494A8" stroke-width="1.10828" stroke-miterlimit="22.9256" stroke-linecap="round" stroke-linejoin="round"/>
<path d="M34.7446 53.8357V65.1993" stroke="#9494A8" stroke-width="1.10828" stroke-miterlimit="22.9256" stroke-linecap="round" stroke-linejoin="round"/>
<path d="M41.5627 53.8357V65.1993" stroke="#9494A8" stroke-width="1.10828" stroke-miterlimit="22.9256" stroke-linecap="round" stroke-linejoin="round"/>
<path d="M47.9265 53.8357V65.1993" stroke="#9494A8" stroke-width="1.10828" stroke-miterlimit="22.9256" stroke-linecap="round" stroke-linejoin="round"/>
<path fill-rule="evenodd" clip-rule="evenodd" d="M65.1991 53.3811C67.0173 54.972 67.9264 57.0175 67.9264 59.2902C67.9264 63.8357 64.29 67.472 59.9719 67.472C55.4264 67.472 51.79 63.8357 51.79 59.2902C51.79 56.7902 52.9264 54.5175 54.7446 53.1539V23.8357C54.7446 20.8811 57.2446 18.6084 59.9719 18.6084C62.9264 18.6084 65.1991 20.8811 65.1991 23.8357V53.3811Z" stroke="#9494A8" stroke-width="2.21656" stroke-miterlimit="22.9256" stroke-linecap="round" stroke-linejoin="round"/>
<path fill-rule="evenodd" clip-rule="evenodd" d="M59.9719 23.6084C61.1083 23.6084 62.0173 24.5175 62.0173 25.6539V56.3357C63.1537 57.0175 63.8355 58.1539 63.8355 59.5175C63.8355 61.7902 62.0173 63.6084 59.9719 63.6084C57.6992 63.6084 55.881 61.7902 55.881 59.5175C55.881 58.1539 56.7901 56.7902 58.1537 56.1084V25.6539C58.1537 24.5175 59.0628 23.6084 59.9719 23.6084V23.6084Z" stroke="#9494A8" stroke-width="2.21656" stroke-miterlimit="22.9256" stroke-linecap="round" stroke-linejoin="round"/>
<path fill-rule="evenodd" clip-rule="evenodd" d="M62.0173 50.6539V56.3357C63.1537 57.0176 63.8355 58.1539 63.8355 59.5176C63.8355 61.7903 62.0173 63.6085 59.9719 63.6085C57.6992 63.6085 55.881 61.7903 55.881 59.5176C55.881 58.1539 56.7901 56.7903 58.1537 56.1085V50.6539H62.0173Z" fill="#9494A8" stroke="#9494A8" stroke-width="2.21656" stroke-miterlimit="22.9256" stroke-linecap="round" stroke-linejoin="round"/>
<path d="M74.7448 37.0176V52.2449" stroke="#9494A8" stroke-width="2.21656" stroke-miterlimit="22.9256" stroke-linecap="round" stroke-linejoin="round"/>
<path d="M81.1084 48.3811L68.1538 40.8811" stroke="#9494A8" stroke-width="2.21656" stroke-miterlimit="22.9256" stroke-linecap="round" stroke-linejoin="round"/>
<path d="M68.1538 48.3811L81.1084 40.8811" stroke="#9494A8" stroke-width="2.21656" stroke-miterlimit="22.9256" stroke-linecap="round" stroke-linejoin="round"/>
<path fill-rule="evenodd" clip-rule="evenodd" d="M6.79026 1.1084H55.8812C56.7903 3.15385 61.3357 11.3357 61.3357 11.5629L1.56299 11.3357L6.79026 1.1084V1.1084Z" stroke="#9494A8" stroke-width="2.21656" stroke-miterlimit="22.9256" stroke-linecap="round" stroke-linejoin="round"/>
<path d="M11.1083 3.83569L8.83557 8.15388" stroke="#9494A8" stroke-width="1.10828" stroke-miterlimit="22.9256" stroke-linecap="round" stroke-linejoin="round"/>
<path d="M17.4721 4.06299L16.563 8.1539" stroke="#9494A8" stroke-width="1.10828" stroke-miterlimit="22.9256" stroke-linecap="round" stroke-linejoin="round"/>
<path d="M24.2901 4.06299L23.8356 8.1539" stroke="#9494A8" stroke-width="1.10828" stroke-miterlimit="22.9256" stroke-linecap="round" stroke-linejoin="round"/>
<path d="M31.3356 4.06299V8.1539" stroke="#9494A8" stroke-width="1.10828" stroke-miterlimit="22.9256" stroke-linecap="round" stroke-linejoin="round"/>
<path d="M45.1992 4.06297L46.1083 8.15388M51.5628 3.83569L53.8356 8.15388L51.5628 3.83569ZM31.3356 4.06297V8.15388V4.06297ZM38.381 4.06297L38.8356 8.15388L38.381 4.06297Z" stroke="#9494A8" stroke-width="1.10828" stroke-miterlimit="22.9256" stroke-linecap="round" stroke-linejoin="round"/>
</svg>
