<svg width="73" height="70" viewBox="0 0 73 70" fill="none" xmlns="http://www.w3.org/2000/svg">
<path fill-rule="evenodd" clip-rule="evenodd" d="M1.39722 46.5586H71.0746L63.494 68.1715H45.9134H8.17141L1.39722 46.5586Z" stroke="#9494A8" stroke-width="2.47191" stroke-miterlimit="22.9256" stroke-linecap="round" stroke-linejoin="round"/>
<path d="M18.4941 13.9779H4.94568V43.6553H18.4941V13.9779Z" stroke="#9494A8" stroke-width="1.1236" stroke-miterlimit="22.9256" stroke-linecap="round" stroke-linejoin="round"/>
<path d="M35.107 13.9779H20.4296V43.6553H35.107V13.9779Z" stroke="#9494A8" stroke-width="1.1236" stroke-miterlimit="22.9256" stroke-linecap="round" stroke-linejoin="round"/>
<path d="M51.881 13.9779H37.2036V43.6553H51.881V13.9779Z" stroke="#9494A8" stroke-width="1.1236" stroke-miterlimit="22.9256" stroke-linecap="round" stroke-linejoin="round"/>
<path d="M67.6876 13.9779H54.1392V43.6553H67.6876V13.9779Z" stroke="#9494A8" stroke-width="1.1236" stroke-miterlimit="22.9256" stroke-linecap="round" stroke-linejoin="round"/>
<path fill-rule="evenodd" clip-rule="evenodd" d="M1.39722 11.3973H71.0746V18.0102V46.7199H46.8811V46.5586H1.39722V11.3973Z" stroke="#9494A8" stroke-width="2.47191" stroke-miterlimit="22.9256" stroke-linecap="round" stroke-linejoin="round"/>
<path d="M13.3326 51.7198L16.3972 63.0102" stroke="#9494A8" stroke-width="1.1236" stroke-miterlimit="22.9256" stroke-linecap="round" stroke-linejoin="round"/>
<path d="M24.3005 51.3973L26.0747 62.8489" stroke="#9494A8" stroke-width="1.1236" stroke-miterlimit="22.9256" stroke-linecap="round" stroke-linejoin="round"/>
<path d="M35.5908 51.236V63.0102" stroke="#9494A8" stroke-width="1.1236" stroke-miterlimit="22.9256" stroke-linecap="round" stroke-linejoin="round"/>
<path d="M58.0101 51.7198L54.7843 63.0102" stroke="#9494A8" stroke-width="1.1236" stroke-miterlimit="22.9256" stroke-linecap="round" stroke-linejoin="round"/>
<path d="M47.0424 51.3973L45.1069 62.8489" stroke="#9494A8" stroke-width="1.1236" stroke-miterlimit="22.9256" stroke-linecap="round" stroke-linejoin="round"/>
<path fill-rule="evenodd" clip-rule="evenodd" d="M7.52628 1.23596H64.9456C66.0747 3.17145 71.236 11.0747 71.236 11.3973L1.23596 11.236L7.52628 1.23596V1.23596Z" stroke="#9494A8" stroke-width="2.47191" stroke-miterlimit="22.9256" stroke-linecap="round" stroke-linejoin="round"/>
<path d="M12.6876 3.97791L9.94568 8.17145" stroke="#9494A8" stroke-width="1.1236" stroke-miterlimit="22.9256" stroke-linecap="round" stroke-linejoin="round"/>
<path d="M20.107 4.13916L18.8167 8.01013" stroke="#9494A8" stroke-width="1.1236" stroke-miterlimit="22.9256" stroke-linecap="round" stroke-linejoin="round"/>
<path d="M28.0101 4.13916L27.5262 8.17142" stroke="#9494A8" stroke-width="1.1236" stroke-miterlimit="22.9256" stroke-linecap="round" stroke-linejoin="round"/>
<path d="M36.236 4.13916V8.17142" stroke="#9494A8" stroke-width="1.1236" stroke-miterlimit="22.9256" stroke-linecap="round" stroke-linejoin="round"/>
<path d="M52.365 4.1392L53.6553 8.01016M59.7844 3.97791L62.5263 8.17145L59.7844 3.97791ZM36.236 4.1392V8.17145V4.1392ZM44.4618 4.1392L44.9456 8.17145L44.4618 4.1392Z" stroke="#9494A8" stroke-width="1.1236" stroke-miterlimit="22.9256" stroke-linecap="round" stroke-linejoin="round"/>
<path fill-rule="evenodd" clip-rule="evenodd" d="M7.52628 1.23596H64.9456C66.0747 3.17145 71.236 11.0747 71.236 11.3973L1.23596 11.236L7.52628 1.23596V1.23596Z" stroke="#9494A8" stroke-width="2.47191" stroke-miterlimit="22.9256" stroke-linecap="round" stroke-linejoin="round"/>
<path d="M12.6876 3.97791L9.94568 8.17145" stroke="#9494A8" stroke-width="1.1236" stroke-miterlimit="22.9256" stroke-linecap="round" stroke-linejoin="round"/>
<path d="M20.107 4.13916L18.8167 8.01013" stroke="#9494A8" stroke-width="1.1236" stroke-miterlimit="22.9256" stroke-linecap="round" stroke-linejoin="round"/>
<path d="M28.0101 4.13916L27.5262 8.17142" stroke="#9494A8" stroke-width="1.1236" stroke-miterlimit="22.9256" stroke-linecap="round" stroke-linejoin="round"/>
<path d="M36.236 4.13916V8.17142" stroke="#9494A8" stroke-width="1.1236" stroke-miterlimit="22.9256" stroke-linecap="round" stroke-linejoin="round"/>
<path d="M52.365 4.1392L53.6553 8.01016M59.7844 3.97791L62.5263 8.17145L59.7844 3.97791ZM36.236 4.1392V8.17145V4.1392ZM44.4618 4.1392L44.9456 8.17145L44.4618 4.1392Z" stroke="#9494A8" stroke-width="1.1236" stroke-miterlimit="22.9256" stroke-linecap="round" stroke-linejoin="round"/>
</svg>
