<svg width="68" height="71" viewBox="0 0 68 71" fill="none" xmlns="http://www.w3.org/2000/svg">
<path d="M66.3672 1.36719H1.36719V68.9776H66.3672V1.36719Z" stroke="#9494A8" stroke-width="2.73438" stroke-miterlimit="22.9256" stroke-linecap="round" stroke-linejoin="round"/>
<path d="M44.4395 41.568H1.36719V68.9776H44.4395V41.568Z" stroke="#9494A8" stroke-width="2.73438" stroke-miterlimit="22.9256" stroke-linecap="round" stroke-linejoin="round"/>
<path d="M46.2668 37.5219H1.36719V41.568H46.2668V37.5219Z" stroke="#9494A8" stroke-width="2.73438" stroke-miterlimit="22.9256" stroke-linecap="round" stroke-linejoin="round"/>
<path fill-rule="evenodd" clip-rule="evenodd" d="M1.36719 1.36719H66.3672L61.4073 10.8953H7.24068L1.36719 1.36719Z" stroke="#9494A8" stroke-width="1.36719" stroke-miterlimit="22.9256" stroke-linecap="round" stroke-linejoin="round"/>
<path d="M7.24072 10.8953V37.5218" stroke="#9494A8" stroke-width="1.36719" stroke-miterlimit="22.9256" stroke-linecap="round" stroke-linejoin="round"/>
<path d="M61.4073 10.8953V68.9776" stroke="#9494A8" stroke-width="1.36719" stroke-miterlimit="22.9256" stroke-linecap="round" stroke-linejoin="round"/>
<path d="M44.4395 44.309H61.4073" stroke="#9494A8" stroke-width="1.36719" stroke-miterlimit="22.9256" stroke-linecap="round" stroke-linejoin="round"/>
<path d="M20.2929 13.8973H9.59009V37.5218H20.2929V13.8973Z" stroke="#9494A8" stroke-width="1.36719" stroke-miterlimit="22.9256" stroke-linecap="round" stroke-linejoin="round"/>
<path d="M33.345 13.8973H22.6422V37.5218H33.345V13.8973Z" stroke="#9494A8" stroke-width="1.36719" stroke-miterlimit="22.9256" stroke-linecap="round" stroke-linejoin="round"/>
<path d="M46.1363 13.8973H35.4335V37.5218H46.1363V13.8973Z" stroke="#9494A8" stroke-width="1.36719" stroke-miterlimit="22.9256" stroke-linecap="round" stroke-linejoin="round"/>
<path d="M58.9274 13.8973H48.2246V44.309H58.9274V13.8973Z" stroke="#9494A8" stroke-width="1.36719" stroke-miterlimit="22.9256" stroke-linecap="round" stroke-linejoin="round"/>
<path d="M46.0057 39.7407V44.309" stroke="#9494A8" stroke-width="1.36719" stroke-miterlimit="22.9256" stroke-linecap="round" stroke-linejoin="round"/>
<path d="M23.817 41.568L2.01978 68.9776" stroke="#9494A8" stroke-width="1.36719" stroke-miterlimit="22.9256" stroke-linecap="round" stroke-linejoin="round"/>
<path d="M33.8673 41.568L12.0701 68.9776" stroke="#9494A8" stroke-width="1.36719" stroke-miterlimit="22.9256" stroke-linecap="round" stroke-linejoin="round"/>
<path d="M44.57 41.568L22.7728 68.9776" stroke="#9494A8" stroke-width="1.36719" stroke-miterlimit="22.9256" stroke-linecap="round" stroke-linejoin="round"/>
<path d="M44.4395 55.2728L33.6062 68.9776" stroke="#9494A8" stroke-width="1.36719" stroke-miterlimit="22.9256" stroke-linecap="round" stroke-linejoin="round"/>
<path d="M14.2889 41.568L1.36719 57.8833" stroke="#9494A8" stroke-width="1.36719" stroke-miterlimit="22.9256" stroke-linecap="round" stroke-linejoin="round"/>
</svg>
