<svg width="31" height="20" viewBox="0 0 31 20" fill="none" xmlns="http://www.w3.org/2000/svg">
<path fill-rule="evenodd" clip-rule="evenodd" d="M10.7767 19.2857H25.0624C27.9196 19.2857 29.3482 17.8571 29.3482 14.9999V4.99995C29.3482 3.57138 27.9196 0.714233 25.0624 0.714233H10.7767C9.34816 0.714233 7.40173 1.875 6.49102 3.57138C3.33923 4.3125 0.714233 6.27679 0.714233 10.5625C0.714233 13.4196 3.63388 16.4285 6.49102 16.4285C7.91959 17.8571 9.34816 19.2857 10.7767 19.2857Z" stroke="#EF7F1A" stroke-width="1.42857" stroke-miterlimit="22.9256"/>
<path d="M7.73214 13.1963C9.3101 13.1963 10.5893 11.9172 10.5893 10.3392C10.5893 8.76124 9.3101 7.48206 7.73214 7.48206C6.15419 7.48206 4.875 8.76124 4.875 10.3392C4.875 11.9172 6.15419 13.1963 7.73214 13.1963Z" stroke="#EF7F1A" stroke-width="1.42857" stroke-miterlimit="22.9256" stroke-linecap="round" stroke-linejoin="round"/>
<path d="M16.491 15V5C16.491 5 20.2053 5 20.2053 7.85714C20.2053 10.7143 16.9195 10.7143 16.9195 10.7143" stroke="#EF7F1A" stroke-width="1.42857" stroke-miterlimit="22.9256" stroke-linecap="round" stroke-linejoin="round"/>
<path d="M15.0625 13.5714H18.3482" stroke="#EF7F1A" stroke-width="1.42857" stroke-miterlimit="22.9256" stroke-linecap="round" stroke-linejoin="round"/>
</svg>
