<svg width="23" height="21" viewBox="0 0 23 21" fill="none" xmlns="http://www.w3.org/2000/svg">
<path d="M21.7478 0.657959H0.634949V20.5008H21.7478V0.657959Z" stroke="#EF7F1A" stroke-width="2" stroke-miterlimit="22.9256" stroke-linecap="round" stroke-linejoin="round"/>
<path d="M7.59731 14.2454V5.15485H11.0078C11.7023 5.15485 12.2583 5.24786 12.6758 5.43389C13.0975 5.61578 13.4262 5.89895 13.6618 6.28341C13.9016 6.66373 14.0214 7.06266 14.0214 7.48018C14.0214 7.86877 13.916 8.23463 13.7052 8.57774C13.4944 8.92086 13.176 9.19783 12.7503 9.40866C13.3001 9.56989 13.7217 9.84479 14.0152 10.2334C14.3129 10.622 14.4617 11.0808 14.4617 11.61C14.4617 12.0358 14.3708 12.4326 14.1889 12.8006C14.0111 13.1643 13.7899 13.4454 13.5254 13.6439C13.2608 13.8423 12.928 13.9932 12.527 14.0965C12.1302 14.1958 11.6424 14.2454 11.0636 14.2454H7.59731ZM8.80028 8.9746H10.766C11.2992 8.9746 11.6816 8.93946 11.9131 8.86918C12.219 8.77824 12.4485 8.62735 12.6014 8.41652C12.7585 8.20569 12.8371 7.94112 12.8371 7.6228C12.8371 7.32103 12.7647 7.05646 12.62 6.82909C12.4753 6.59759 12.2687 6.4405 11.9999 6.35782C11.7312 6.27101 11.2703 6.2276 10.6171 6.2276H8.80028V8.9746ZM8.80028 13.1726H11.0636C11.4522 13.1726 11.725 13.1581 11.8821 13.1292C12.1591 13.0796 12.3906 12.9969 12.5766 12.8812C12.7627 12.7654 12.9156 12.598 13.0355 12.3789C13.1554 12.1557 13.2153 11.8994 13.2153 11.61C13.2153 11.271 13.1285 10.9775 12.9549 10.7295C12.7813 10.4773 12.5394 10.3016 12.2294 10.2024C11.9235 10.099 11.4811 10.0474 10.9024 10.0474H8.80028V13.1726Z" fill="#EF7F1A"/>
</svg>
